PathFileType	4	(X/Y/Z)	/Users/itak/Documents/Research/Walk-IL/dataset/trc/00382_00012.trc
DataRate	CameraRate	NumFrames	NumMarkers	Units	OrigDataRate	OrigDataStartFrame	OrigNumFrames
100.000000	100.000000	4	54	mm	100.000000	140	560
Frame#	Time	RPSI			LPSI			L3			STRN			T10			C7			CLAV			RBAK			LBAK			LSHO			LUPA			LAEL			LAOL			LWTS			LWPS			LFRA			LIFD			LHPS			LHTS			RSHO			RUPA			RAEL			RAOL			RWTS			RWPS			RFRA			RIFD			RHPS			RBHD			LFHD			RFHD			LBHD			LHIP			RHIP			RASI			LASI			LKNE			LTHI			LANK			LTIP			LTOE			LMT1			LMT5			LHEE			RKNE			RTHI			RANK			RTIP			RTOE			RMT1			RMT5			RHEE			RHTS			*53			
		X1	Y1	Z1	X2	Y2	Z2	X3	Y3	Z3	X4	Y4	Z4	X5	Y5	Z5	X6	Y6	Z6	X7	Y7	Z7	X8	Y8	Z8	X9	Y9	Z9	X10	Y10	Z10	X11	Y11	Z11	X12	Y12	Z12	X13	Y13	Z13	X14	Y14	Z14	X15	Y15	Z15	X16	Y16	Z16	X17	Y17	Z17	X18	Y18	Z18	X19	Y19	Z19	X20	Y20	Z20	X21	Y21	Z21	X22	Y22	Z22	X23	Y23	Z23	X24	Y24	Z24	X25	Y25	Z25	X26	Y26	Z26	X27	Y27	Z27	X28	Y28	Z28	X29	Y29	Z29	X30	Y30	Z30	X31	Y31	Z31	X32	Y32	Z32	X33	Y33	Z33	X34	Y34	Z34	X35	Y35	Z35	X36	Y36	Z36	X37	Y37	Z37	X38	Y38	Z38	X39	Y39	Z39	X40	Y40	Z40	X41	Y41	Z41	X42	Y42	Z42	X43	Y43	Z43	X44	Y44	Z44	X45	Y45	Z45	X46	Y46	Z46	X47	Y47	Z47	X48	Y48	Z48	X49	Y49	Z49	X50	Y50	Z50	X51	Y51	Z51	X52	Y52	Z52	X53	Y53	Z53	X54	Y54	Z54	

141	1.4	-1656.061157226562	992.5338745117188	165.0229339599609	-1662.232788085938	984.1080322265625	33.65499877929688	-1657.75244140625	1058.142944335938	102.2546844482422	-1423.345703125	1218.829711914062	106.3063659667969	-1670.857055664062	1162.169555664062	96.69967651367188	-1635.548706054688	1411.429321289062	88.95138549804688	-1477.764770507812	1337.282592773438	103.4741287231445	-1677.646850585938	1263.969970703125	154.2470855712891	-1645.407592773438	1374.6533203125	-15.81552314758301	-1555.590942382812	1390.462158203125	-61.9063835144043	-1570.972534179688	1272.3955078125	-132.2008819580078	-1534.06982421875	1075.495239257812	-149.0863952636719	-1600.361083984375	1052.222290039062	-101.6253280639648	-1445.731567382812	866.72705078125	-69.68740081787109	-1469.1123046875	849.392333984375	-145.8507537841797	-1506.330200195312	972.0222778320312	-150.5400543212891	-1438.012939453125	688.2308959960938	-63.67271041870117	-1451.650268554688	765.4564819335938	-129.8067321777344	-1417.264404296875	770.2003173828125	-79.00062561035156	-1586.633666992188	1391.662475585938	250.5639495849609	-1598.232055664062	1325.141967773438	310.1978454589844	-1571.744873046875	1061.24951171875	344.6199340820312	-1597.521728515625	1054.313720703125	254.6061248779297	-1438.913818359375	854.3576049804688	281.8136291503906	-1464.951049804688	840.3515014648438	349.7714538574219	-1538.919799804688	997.166015625	354.3135986328125	-1434.237060546875	681.6414794921875	278.4015502929688	-1455.573120117188	750.3857421875	345.1545715332031	-1609.377685546875	1609.776245117188	148.4665374755859	-1449.881958007812	1599.093139648438	29.04327964782715	-1476.546997070312	1623.726196289062	146.3634185791016	-1591.274169921875	1574.119995117188	-9.671917915344238	-1574.497436523438	969.9991455078125	-80.23101806640625	-1573.692138671875	969.1245727539062	279.5506591796875	-1439.973999023438	974.8804931640625	222.8528289794922	-1460.760375976562	966.5142211914062	-40.24086761474609	-1538.43603515625	475.9275817871094	-58.02889633178711	-1542.459228515625	618.6627807617188	-70.44557189941406	-1629.943725585938	45.13241577148438	-13.90346050262451	-1584.813354492188	243.9199981689453	-47.76457595825195	-1414.9326171875	46.07478332519531	53.66003036499023	-1495.959106445312	45.14322280883789	82.70085144042969	-1502.352294921875	42.27960586547852	-22.89992713928223	-1668.593994140625	41.77101516723633	42.77581405639648	-1543.86865234375	477.7091674804688	260.0352783203125	-1501.038452148438	741.7666625976562	280.4124145507812	-1594.584350585938	56.88169097900391	231.5390472412109	-1536.557373046875	351.6998596191406	245.2148742675781	-1420.309692382812	40.35196685791016	157.6668395996094	-1497.462646484375	44.13153457641602	132.1322937011719	-1510.619506835938	46.65243530273438	232.3081665039062	-1670.787475585938	44.87604522705078	183.7928009033203	nan	nan	nan	nan	nan	nan	
142	1.41	-1656.029663085938	992.509521484375	164.9781951904297	-1662.193359375	984.077880859375	33.61218643188477	-1657.753784179688	1058.130737304688	102.2172393798828	-1423.302856445312	1218.825073242188	106.2685470581055	-1670.853515625	1162.173461914062	96.67130279541016	-1635.534423828125	1411.421630859375	88.91706848144531	-1477.76611328125	1337.282104492188	103.4159622192383	-1677.578857421875	1263.947875976562	154.2036437988281	-1645.394653320312	1374.637817382812	-15.88929653167725	-1555.5693359375	1390.45751953125	-61.94448089599609	-1571	1272.388671875	-132.2580718994141	-1534.06640625	1075.487426757812	-149.1239318847656	-1600.346435546875	1052.212768554688	-101.6487121582031	-1445.604370117188	866.7432250976562	-69.76930999755859	-1469.111328125	849.3782348632812	-145.8929443359375	-1506.332153320312	972.0142211914062	-150.5890350341797	-1437.92578125	688.1900634765625	-63.74260330200195	-1451.66796875	765.462890625	-129.862548828125	-1417.253051757812	770.1756591796875	-79.02901458740234	-1586.619750976562	1391.679443359375	250.5169677734375	-1598.213012695312	1325.160034179688	310.1723327636719	-1571.692016601562	1061.239013671875	344.5989074707031	-1597.514404296875	1054.324096679688	254.54833984375	-1438.86083984375	854.3499145507812	281.8125610351562	-1464.882568359375	840.3690795898438	349.7314453125	-1538.909301757812	997.1775512695312	354.3018493652344	-1434.556274414062	681.5567626953125	278.376953125	-1455.455078125	750.3952026367188	345.1067504882812	-1609.285888671875	1609.782958984375	148.3993225097656	-1449.821899414062	1599.087646484375	28.91127395629883	-1476.44091796875	1623.7333984375	146.2728729248047	-1591.268432617188	1574.088134765625	-9.749923706054688	-1574.471435546875	969.9857788085938	-80.25212860107422	-1573.669311523438	969.1277465820312	279.5434875488281	-1439.944213867188	974.876220703125	222.7861785888672	-1460.7734375	966.5049438476562	-40.24624633789062	-1538.37060546875	475.9147338867188	-58.04407119750977	-1542.405639648438	618.647216796875	-70.45813751220703	-1629.942260742188	45.13086318969727	-13.90480422973633	-1584.797119140625	243.9198150634766	-47.77541351318359	-1414.939819335938	46.08330535888672	53.66521072387695	-1495.94873046875	45.14225006103516	82.70271301269531	-1502.36083984375	42.28184127807617	-22.90070915222168	-1668.593994140625	41.77197265625	42.77513122558594	-1543.811279296875	477.7043762207031	259.9775390625	-1500.981323242188	741.78271484375	280.3712768554688	-1594.580078125	56.88675308227539	231.5300750732422	-1536.513305664062	351.6869812011719	245.1649322509766	-1420.306884765625	40.34708404541016	157.6662292480469	-1497.465087890625	44.13093185424805	132.126953125	-1510.624389648438	46.66253280639648	232.3006439208984	-1670.7822265625	44.87498474121094	183.7876129150391	nan	nan	nan	nan	nan	nan	
143	1.42	-1655.99658203125	992.4852905273438	164.9341278076172	-1662.156127929688	984.0491943359375	33.57004547119141	-1657.765625	1058.124755859375	102.1755676269531	-1423.274536132812	1218.816650390625	106.2255630493164	-1670.8466796875	1162.178344726562	96.64695739746094	-1635.517211914062	1411.41650390625	88.88721466064453	-1477.75439453125	1337.278930664062	103.3529891967773	-1677.5029296875	1263.924194335938	154.1622161865234	-1645.378051757812	1374.620727539062	-15.95477867126465	-1555.546020507812	1390.453491210938	-61.98073959350586	-1571.025146484375	1272.383178710938	-132.3111267089844	-1534.066162109375	1075.48046875	-149.1605987548828	-1600.335571289062	1052.203735351562	-101.6710205078125	-1445.463134765625	866.7609252929688	-69.85784149169922	-1469.118408203125	849.3659057617188	-145.9409942626953	-1506.336181640625	972.0061645507812	-150.6388549804688	-1437.859741210938	688.14306640625	-63.82431030273438	-1451.6904296875	765.468017578125	-129.9227294921875	-1417.256225585938	770.15234375	-79.06172180175781	-1586.598876953125	1391.695556640625	250.4722290039062	-1598.175415039062	1325.1767578125	310.1524353027344	-1571.639038085938	1061.231323242188	344.5746154785156	-1597.4951171875	1054.327880859375	254.4970550537109	-1438.796142578125	854.3397827148438	281.8139343261719	-1464.825561523438	840.3845825195312	349.6850891113281	-1538.881225585938	997.1900634765625	354.2868347167969	-1434.9755859375	681.4432983398438	278.3441467285156	-1455.339721679688	750.39990234375	345.066650390625	-1609.19140625	1609.7841796875	148.3445129394531	-1449.7529296875	1599.085083007812	28.78831481933594	-1476.343383789062	1623.743896484375	146.1819000244141	-1591.265991210938	1574.070678710938	-9.820162773132324	-1574.447509765625	969.9735107421875	-80.27336883544922	-1573.64404296875	969.1307373046875	279.5340576171875	-1439.90625	974.8687744140625	222.7154388427734	-1460.787719726562	966.4960327148438	-40.25296783447266	-1538.309448242188	475.9032287597656	-58.06296920776367	-1542.3525390625	618.63037109375	-70.47322082519531	-1629.939453125	45.12833404541016	-13.90759372711182	-1584.778564453125	243.9174041748047	-47.78800201416016	-1414.945190429688	46.09311294555664	53.67076110839844	-1495.944091796875	45.140869140625	82.70451354980469	-1502.366455078125	42.28258514404297	-22.90083122253418	-1668.59326171875	41.77257919311523	42.773681640625	-1543.7509765625	477.70458984375	259.9234924316406	-1500.913940429688	741.7993774414062	280.3329772949219	-1594.575317382812	56.88760757446289	231.5192565917969	-1536.469482421875	351.6722717285156	245.113525390625	-1420.303588867188	40.34069442749023	157.6649932861328	-1497.467895507812	44.13106918334961	132.1215972900391	-1510.638916015625	46.67286682128906	232.2887573242188	-1670.776245117188	44.87438201904297	183.7827606201172	nan	nan	nan	nan	nan	nan	
144	1.43	-1655.961547851562	992.4612426757812	164.8912658691406	-1662.12109375	984.022216796875	33.52862548828125	-1657.78857421875	1058.125244140625	102.1285781860352	-1423.262084960938	1218.804809570312	106.1770782470703	-1670.8359375	1162.183471679688	96.62639617919922	-1635.49658203125	1411.413452148438	88.86190032958984	-1477.730590820312	1337.271362304688	103.2874450683594	-1677.420532226562	1263.900024414062	154.1260528564453	-1645.35888671875	1374.602294921875	-16.01021957397461	-1555.521606445312	1390.449829101562	-62.01457595825195	-1571.045532226562	1272.37890625	-132.3585815429688	-1534.070190429688	1075.4736328125	-149.1976013183594	-1600.329467773438	1052.1943359375	-101.6929931640625	-1445.311767578125	866.7794799804688	-69.95275115966797	-1469.132202148438	849.3554077148438	-145.9935607910156	-1506.339721679688	971.9974975585938	-150.6881256103516	-1437.822021484375	688.0901489257812	-63.91728973388672	-1451.716186523438	765.4716186523438	-129.9872894287109	-1417.269653320312	770.1312866210938	-79.09762573242188	-1586.567993164062	1391.710693359375	250.4304046630859	-1598.115844726562	1325.191650390625	310.1393127441406	-1571.584716796875	1061.227172851562	344.546630859375	-1597.463989257812	1054.327026367188	254.4519348144531	-1438.7236328125	854.329833984375	281.8160095214844	-1464.7822265625	840.3963012695312	349.6313781738281	-1538.82861328125	997.202392578125	354.2638854980469	-1435.408081054688	681.321533203125	278.3054809570312	-1455.229370117188	750.3997802734375	345.0335998535156	-1609.098754882812	1609.7802734375	148.3024139404297	-1449.674560546875	1599.08447265625	28.67781257629395	-1476.264526367188	1623.756958007812	146.0903167724609	-1591.264892578125	1574.0673828125	-9.878539085388184	-1574.421997070312	969.9619750976562	-80.293212890625	-1573.614990234375	969.1343994140625	279.5213317871094	-1439.86083984375	974.8595581054688	222.6410675048828	-1460.804931640625	966.4869995117188	-40.26165771484375	-1538.250366210938	475.8921813964844	-58.08541488647461	-1542.300659179688	618.613037109375	-70.49176788330078	-1629.936279296875	45.12557983398438	-13.91278743743896	-1584.75732421875	243.9122924804688	-47.802490234375	-1414.946899414062	46.10604476928711	53.67803573608398	-1495.9482421875	45.14007949829102	82.70520782470703	-1502.368041992188	42.28092193603516	-22.90013313293457	-1668.591430664062	41.77301025390625	42.77102661132812	-1543.69287109375	477.7108764648438	259.8750305175781	-1500.836669921875	741.8163452148438	280.3004455566406	-1594.570556640625	56.88574600219727	231.5076141357422	-1536.427001953125	351.6563720703125	245.0622711181641	-1420.30029296875	40.33312225341797	157.662841796875	-1497.472290039062	44.13163757324219	132.1156921386719	-1510.66650390625	46.68302917480469	232.2717590332031	-1670.770629882812	44.8753662109375	183.7775726318359	nan	nan	nan	nan	nan	nan	
